<?xml version="1.0" encoding="UTF-8"?>
<svg width="88.741mm" height="11.906mm" version="1.1" viewBox="0 0 88.741 11.906" xmlns="http://www.w3.org/2000/svg">
 <g transform="translate(-19.558 -41.899)">
  <path d="m30.221 45.709 0.84667-0.05292q0.10583-0.01323 0.18521-0.03969 0.07938-0.03969 0.07938-0.11906 0-0.05292-0.10583-0.18521-0.10583-0.14552-0.27781-0.27781-0.15875-0.13229-0.33073-0.13229-0.03969 0-0.07937 0.01323-0.02646 0-0.06615 0.01323-0.15875 0.05292-0.30427 0.0926-0.14552 0.02646-0.30427 0.03969l-2.196 0.14552q0.19844-0.55563 0.35719-1.098 0.15875-0.55563 0.25135-0.93927 0.10583-0.38365 0.10583-0.43656 0-0.17198-0.18521-0.30427-0.18521-0.14552-0.39688-0.2249-0.19844-0.0926-0.27781-0.0926-0.13229 0-0.13229 0.11906v0.02646q0.03969 0.17198 0.03969 0.33073 0 0.0926-0.14552 0.84667-0.13229 0.75406-0.50271 1.9844-0.35719 1.2303-1.0583 2.7781-0.09261 0.19844-0.09261 0.34396 0 0.11906 0.07938 0.11906 0.11906 0 0.34396-0.29104 0.2249-0.29104 0.46302-0.68792 0.25136-0.39688 0.4101-0.70115 0.23813 0.72761 0.50271 1.4155 0.26458 0.67469 0.59531 1.3097-0.55563 1.0451-1.2039 1.8785-0.64823 0.83344-1.5214 1.6933-0.0926 0.0926-0.14552 0.17198-0.03969 0.07937-0.03969 0.13229 0 0.0926 0.10583 0.0926 0.07937 0 0.39688-0.21167 0.33073-0.19844 0.79375-0.60854 0.47625-0.39688 1.0054-0.99219 0.5424-0.59531 1.0451-1.3891 0.51594 0.82021 1.1245 1.5743 0.62177 0.75406 1.3229 1.4552 0.0926 0.0926 0.19844 0.0926 0.06615 0 0.23813-0.07937 0.17198-0.06615 0.3175-0.17198 0.15875-0.10583 0.15875-0.18521 0-0.07937-0.14552-0.19844-0.88636-0.74084-1.5875-1.5214-0.68792-0.79375-1.2303-1.6933 0.47625-0.92604 0.79375-1.9182 0.33073-0.99219 0.56886-2.1167zm-6.866-0.07938 2.4342-0.15875q0.27781-0.02646 0.27781-0.15875 0-0.13229-0.18521-0.30427-0.19844-0.21167-0.35719-0.21167-0.07938 0-0.11906 0.01323-0.2249 0.07938-0.51594 0.0926l-1.5214 0.10583 0.01323-2.3813q0-0.14552-0.17198-0.23813-0.15875-0.0926-0.34396-0.13229-0.18521-0.03969-0.25135-0.03969-0.14552 0-0.14552 0.0926 0 0.05292 0.03969 0.13229 0.06615 0.13229 0.07937 0.26458 0.02646 0.13229 0.02646 0.27781v2.0638l-1.7727 0.10583q-0.05292 0-0.10583 0.01323-0.05292 0-0.10583 0-0.21167 0-0.41011-0.05292-0.02646-0.01323-0.07937-0.01323-0.05292 0-0.05292 0.05292 0 0.03969 0.01323 0.06615 0.10583 0.4101 0.29104 0.48948 0.19844 0.07937 0.33073 0.07937h0.15875l1.3494-0.0926q-0.56886 0.64823-1.1245 1.1642-0.5424 0.51594-1.1377 0.96573-0.21167 0.15875-0.21167 0.27781 0 0.07937 0.10583 0.07937 0.11906 0 0.5424-0.2249 0.42334-0.2249 0.97896-0.635t1.0716-0.93927q0.03969-0.05292 0.10583-0.14552 0.06615-0.10583 0.11906-0.19844 0 0-0.03969 0.18521-0.02646 0.17198-0.02646 0.26458v0.27781q0 0.19844-0.01323 0.35719-0.01323 0.14552-0.03969 0.30427 0 0.01323-0.01323 0.03969 0 0.01323 0 0.03969 0 0.15875 0.11906 0.26458 0.13229 0.0926 0.27781 0.14552 0.14552 0.05292 0.19844 0.05292 0.19844 0 0.19844-0.33073l0.01323-1.3494q0.02646 0.01323 0.03969 0.03969 0.02646 0.02646 0.03969 0.03969 0.43656 0.25135 0.84667 0.5424 0.4101 0.27781 0.75406 0.56886 0.05292 0.03969 0.10583 0.07938 0.05292 0.02646 0.10583 0.02646 0.10583 0 0.25136-0.18521 0.11906-0.15875 0.11906-0.27781 0-0.14552-0.14552-0.25136-0.15875-0.11906-0.44979-0.29104-0.27781-0.17198-0.58208-0.34396-0.29104-0.17198-0.52917-0.29104-0.23812-0.11906-0.3175-0.11906-0.14552 0-0.23812 0.17198zm1.3097-2.7384q0 0.26458-0.07938 0.37042-0.13229 0.25136-0.38365 0.59532-0.23813 0.33073-0.50271 0.635-0.13229 0.14552-0.13229 0.23813 0 0.06615 0.06615 0.06615 0.14552 0 0.43656-0.19844 0.29104-0.19844 0.59531-0.46302 0.3175-0.27781 0.52917-0.50271 0.2249-0.23813 0.2249-0.30427 0-0.13229-0.14552-0.26458-0.14552-0.14552-0.30427-0.23812-0.14552-0.10583-0.18521-0.10583-0.0926 0-0.11906 0.17198zm-2.4077 1.5478q0-0.06615-0.13229-0.2249-0.13229-0.17198-0.3175-0.35719-0.18521-0.19844-0.38365-0.38365-0.18521-0.18521-0.30427-0.29104-0.07938-0.07938-0.15875-0.07938-0.11906 0-0.23813 0.13229-0.10583 0.11906-0.10583 0.21167 0 0.05292 0.0926 0.17198 0.2249 0.2249 0.46302 0.52917 0.25136 0.29104 0.43656 0.5424 0.10583 0.14552 0.19844 0.14552 0.03969 0 0.14552-0.05292 0.10583-0.06615 0.19844-0.15875 0.10583-0.0926 0.10583-0.18521zm5.1726 1.4155 1.8653-0.10583q-0.30427 1.7595-0.88636 3.1618-0.3175-0.64823-0.56886-1.3626-0.25136-0.72761-0.46302-1.5478zm-1.6933 2.9898-0.80698 0.07938v-0.02646q0-0.18521-0.13229-0.33073t-0.30427-0.23813q-0.15875-0.0926-0.27781-0.0926t-0.11906 0.13229q0 0.05292 0 0.10583 0.01323 0.03969 0.01323 0.0926 0 0.06615-0.01323 0.13229 0 0.06615-0.01323 0.13229l-0.03969 0.15875q-0.34396 0.02646-0.635 0.06615-0.27781 0.02646-0.60854 0.05292 0.14552-0.3175 0.19844-0.44979 0.05292-0.13229 0.05292-0.21167 0-0.13229-0.14552-0.26458-0.14552-0.14552-0.3175-0.23813-0.15875-0.10583-0.2249-0.10583-0.07937 0-0.07937 0.15875v0.13229q0 0.17198-0.0926 0.4101-0.07938 0.23813-0.25136 0.62177-0.39688 0.01323-0.78052 0.03969-0.37042 0.01323-0.72761 0.02646h-0.14552q-0.17198 0-0.30427-0.01323-0.11906-0.02646-0.25136-0.05292-0.02646-0.01323-0.07937-0.01323-0.07937 0-0.07937 0.07937v0.03969q0.02646 0.0926 0.0926 0.27781 0.07938 0.17198 0.2249 0.3175 0.15875 0.14552 0.41011 0.14552 0.06615 0 0.14552 0 0.0926-0.01323 0.19844-0.02646l0.93927-0.0926q-0.19844 0.35719-0.29104 0.52917-0.0926 0.17198-0.11906 0.23812-0.02646 0.05292-0.02646 0.10583 0 0.06615 0.01323 0.10583 0.05292 0.21167 0.21167 0.25136 0.17198 0.03969 0.27781 0.0926 0.2249 0.10583 0.43656 0.2249 0.2249 0.10583 0.43656 0.2249-0.56886 0.52917-1.2171 0.88636-0.635 0.37042-1.3626 0.635-0.38365 0.13229-0.38365 0.29104 0 0.0926 0.19844 0.0926 0.01323 0 0.3175-0.05292 0.3175-0.05292 0.82021-0.21167 0.50271-0.14552 1.0848-0.44979 0.59531-0.30427 1.1509-0.82021 0.37042 0.21167 0.74084 0.47625 0.37042 0.26458 0.68792 0.52917 0.17198 0.14552 0.27781 0.14552 0.15875 0 0.26458-0.2249 0.10583-0.21167 0.10583-0.3175 0-0.18521-0.37042-0.42334-0.37042-0.25136-1.1774-0.71438 0.35719-0.44979 0.62177-0.9525t0.48948-1.1642q0.59531-0.0926 0.89959-0.14552 0.30427-0.06615 0.4101-0.11906 0.10583-0.06615 0.10583-0.15875 0-0.13229-0.30427-0.13229-0.02646 0-0.06615 0.01323-0.03969 0-0.07937 0zm-3.2808 0.92604 1.4288-0.23813q-0.17198 0.47625-0.37042 0.87313-0.19844 0.38365-0.48948 0.75406-0.26458-0.14552-0.51594-0.27781-0.23813-0.13229-0.5424-0.26458 0.13229-0.19844 0.23812-0.39688 0.11906-0.21167 0.25136-0.44979z"/>
  <path d="m37.325 53.051 7.3819-0.2249q0.26458 0 0.26458-0.19844 0-0.18521-0.23812-0.42333-0.27781-0.19844-0.39688-0.19844-0.0926 0-0.13229 0.02646-0.13229 0.05292-0.26458 0.05292t-0.3175 0.01323l-2.6062 0.07938v-1.6933l2.4739-0.10583q0.19844-0.02646 0.19844-0.19844 0-0.14552-0.13229-0.27781-0.11906-0.14552-0.26458-0.23813-0.14552-0.0926-0.21167-0.0926-0.05292 0-0.0926 0.01323-0.18521 0.06615-0.30427 0.0926-0.11906 0.01323-0.30427 0.05292l-1.3626 0.05292v-1.6536l2.2754-0.0926q0.11906-0.01323 0.19844-0.03969 0.07937-0.03969 0.07937-0.13229 0-0.07937-0.06615-0.21167-0.06615-0.13229-0.2249-0.3175l0.37042-3.7439q0.01323-0.07937 0.05292-0.17198 0.03969-0.0926 0.03969-0.19844 0-0.0926-0.05292-0.18521-0.03969-0.0926-0.18521-0.19844-0.0926-0.0926-0.18521-0.11906-0.0926-0.02646-0.21167-0.02646h-0.07938l-4.4847 0.30427q-0.62177-0.26458-0.83344-0.26458-0.13229 0-0.13229 0.10583t0.05292 0.21167q0.06615 0.17198 0.11906 0.37042 0.06615 0.19844 0.07937 0.46302l0.25136 3.3734q0.01323 0.13229 0.01323 0.23813 0 0.10583 0 0.19844 0 0.13229 0 0.25135 0 0.11906-0.01323 0.25136 0 0.02646-0.01323 0.05292 0 0.02646 0 0.05292 0 0.14552 0.14552 0.27781 0.14552 0.11906 0.30427 0.18521 0.17198 0.06615 0.19844 0.06615 0.2249 0 0.2249-0.23813v-0.02646l-0.02646-0.34396 1.3361-0.05292v1.6536l-1.5875 0.06615q-0.05292 0.01323-0.10583 0.01323-0.03969 0-0.0926 0-0.26458 0-0.52917-0.07937h-0.02646q-0.06615 0-0.06615 0.07937v0.05292q0.14552 0.48948 0.34396 0.58208 0.21167 0.07937 0.3175 0.07937 0.06615 0 0.14552 0 0.07937-0.01323 0.17198-0.01323l1.442-0.07938v1.6801l-2.9633 0.10583h-0.05292q-0.17198 0-0.33073-0.03969-0.15875-0.03969-0.33073-0.06615-0.05292-0.02646-0.05292-0.02646-0.05292 0-0.05292 0.07938 0 0.01323 0 0.03969 0.01323 0.02646 0.01323 0.05292 0.02646 0.13229 0.10583 0.26458 0.07937 0.14552 0.19844 0.29104 0.0926 0.0926 0.2249 0.11906 0.13229 0.02646 0.30427 0.02646zm-2.54-5.8341-0.01323 2.9633q-0.80698 0.30427-1.27 0.46302-0.46302 0.14552-0.82021 0.18521-0.17198 0.01323-0.17198 0.11906 0 0.0926 0.11906 0.26458 0.13229 0.17198 0.30427 0.3175 0.17198 0.13229 0.30427 0.13229 0.19844 0 0.80698-0.27781 0.60854-0.29104 1.4684-0.79375 0.87313-0.50271 1.7992-1.1377 0.33073-0.23812 0.33073-0.38365 0-0.10583-0.14552-0.10583-0.11906 0-0.35719 0.11906-0.35719 0.17198-0.79375 0.38365-0.42334 0.21167-0.80698 0.38365l0.02646-2.6855 1.442-0.10583q0.13229-0.01323 0.2249-0.05292 0.09261-0.05292 0.09261-0.14552 0-0.10583-0.13229-0.25136t-0.30427-0.25136q-0.15875-0.10583-0.23813-0.10583-0.03969 0-0.11906 0.02646-0.13229 0.05292-0.25136 0.07937-0.11906 0.01323-0.25136 0.02646l-0.46302 0.03969 0.02646-2.3945 1.442-0.11906q0.13229-0.01323 0.2249-0.05292 0.0926-0.05292 0.0926-0.14552 0-0.10583-0.11906-0.23812-0.11906-0.14552-0.27781-0.23813-0.15875-0.10583-0.26458-0.10583-0.06615 0-0.14552 0.02646-0.13229 0.05292-0.26458 0.07937-0.11906 0.01323-0.23813 0.03969l-2.3416 0.15875q-0.05292 0-0.10583 0.01323-0.05292 0-0.11906 0-0.19844 0-0.39688-0.03969-0.03969-0.01323-0.0926-0.01323-0.0926 0-0.0926 0.07938 0 0.01323 0 0.05292 0.01323 0.02646 0.02646 0.06615 0.10583 0.3175 0.39688 0.51594 0.06615 0.06615 0.27781 0.06615 0.07937 0 0.17198 0 0.10583-0.01323 0.21167-0.02646l0.83344-0.06615-0.01323 2.4077-0.88636 0.05292h-0.15875q-0.23813 0-0.43656-0.03969-0.07937-0.02646-0.10583-0.02646-0.07937 0-0.07937 0.0926 0 0.01323 0 0.05292 0.01323 0.02646 0.02646 0.06615 0.10583 0.25136 0.25136 0.42334 0.15875 0.15875 0.29104 0.15875 0.03969 0.01323 0.11906 0.01323 0.07937 0 0.17198 0 0.0926-0.01323 0.18521-0.02646zm8.0301-3.81-0.10583 1.5743-1.6933 0.07937v-1.5346zm-2.5797 0.15875v1.561l-1.5346 0.07938-0.10583-1.5346zm2.4209 2.1034-0.11906 1.6933-1.5214 0.07937v-1.6801zm-2.4077 0.14552v1.6669l-1.3758 0.06615-0.11906-1.6536z"/>
  <path d="m47.194 52.297 10.544-0.37042q0.13229-0.01323 0.2249-0.05292 0.10583-0.05292 0.10583-0.14552 0-0.14552-0.15875-0.3175-0.15875-0.17198-0.35719-0.29104-0.18521-0.11906-0.30427-0.11906-0.03969 0-0.07938 0.01323-0.02646 0-0.06615 0.01323-0.29104 0.07937-0.66146 0.10583l-4.1804 0.14552 0.03969-6.4426 3.6116-0.2249q0.14552-0.01323 0.23813-0.05292 0.10583-0.05292 0.10583-0.14552 0-0.10583-0.14552-0.26458-0.14552-0.17198-0.34396-0.29104-0.18521-0.13229-0.3175-0.13229-0.05292 0-0.0926 0.01323-0.03969 0-0.07937 0.01323-0.13229 0.03969-0.3175 0.06615-0.17198 0.02646-0.34396 0.03969l-6.1119 0.39688q-0.06615 0-0.14552 0.01323-0.06615 0-0.13229 0-0.27781 0-0.56886-0.06615-0.03969-0.01323-0.0926-0.01323-0.07938 0-0.07938 0.07938 0 0.02646 0.06615 0.2249 0.06615 0.19844 0.26458 0.38365 0.19844 0.18521 0.56886 0.18521 0.0926 0 0.18521 0 0.10583 0 0.21167-0.01323l2.5929-0.15875-0.02646 6.4294-4.4318 0.15875q-0.07937 0-0.15875 0.01323-0.06615 0-0.13229 0-0.29104 0-0.58208-0.06615-0.03969-0.01323-0.0926-0.01323-0.07937 0-0.07937 0.07938 0 0.05292 0.07937 0.27781 0.0926 0.2249 0.34396 0.42334 0.13229 0.11906 0.46302 0.11906 0.0926 0 0.19844 0 0.10583-0.01323 0.23812-0.01323z"/>
  <path d="m61.151 45.696 8.4138-0.46302q-0.13229 0.41011-0.30427 0.79375-0.15875 0.37042-0.34396 0.72761-0.15875 0.3175-0.15875 0.47625 0 0.13229 0.0926 0.13229 0.09261 0 0.29104-0.18521 0.21167-0.18521 0.55563-0.635 0.34396-0.46302 0.82021-1.2965 0.03969-0.06615 0.10583-0.14552 0.06615-0.0926 0.06615-0.19844 0-0.11906-0.15875-0.27781-0.15875-0.17198-0.42333-0.17198h-0.11906l-2.6326 0.15875q0.44979-0.48948 0.76729-0.92604 0.33073-0.44979 0.51594-0.75406 0.18521-0.3175 0.18521-0.38365 0-0.13229-0.15875-0.27781-0.15875-0.14552-0.35719-0.25135-0.19844-0.11906-0.30427-0.11906-0.13229 0-0.13229 0.18521v0.10583q0 0.07937-0.06615 0.33073-0.05292 0.23813-0.3175 0.74084-0.26458 0.50271-0.89959 1.3891l-5.1858 0.30427q0.0926-0.30427 0.10583-0.39688 0.02646-0.0926 0.02646-0.11906 0-0.19844-0.2249-0.26458-0.21167-0.06615-0.30427-0.06615-0.17198 0-0.25136 0.26458-0.19844 0.68792-0.51594 1.4023-0.30427 0.71438-0.64823 1.2965-0.07937 0.11906-0.07937 0.21167 0 0.11906 0.13229 0.23813 0.13229 0.10583 0.27781 0.17198 0.14552 0.06615 0.17198 0.06615 0.14552 0 0.23812-0.19844 0.2249-0.43656 0.43656-0.91282t0.38365-0.9525zm4.6831-1.7727q0-0.03969-0.10583-0.25136-0.10583-0.21167-0.27781-0.50271-0.15875-0.30427-0.34396-0.58208-0.17198-0.29104-0.33073-0.47625-0.15875-0.19844-0.25136-0.19844-0.0926 0-0.27781 0.0926-0.18521 0.0926-0.18521 0.23813 0 0.07937 0.06615 0.18521 0.25136 0.37042 0.48948 0.82021 0.25136 0.43656 0.42334 0.88636 0.07937 0.19844 0.21167 0.19844 0.02646 0 0.15875-0.03969 0.14552-0.03969 0.27781-0.13229 0.14552-0.0926 0.14552-0.23812zm-2.3548 0.39688q0-0.10583-0.14552-0.33073-0.14552-0.23813-0.35719-0.51594-0.21167-0.27781-0.43656-0.5424-0.21167-0.27781-0.37042-0.44979-0.11906-0.13229-0.21167-0.13229-0.13229 0-0.27781 0.13229t-0.14552 0.23812q0 0.06615 0.07937 0.17198 0.59531 0.72761 1.098 1.6669 0.06615 0.0926 0.10583 0.15875 0.05292 0.05292 0.13229 0.05292 0.05292 0 0.17198-0.06615 0.13229-0.06615 0.23812-0.17198 0.11906-0.10583 0.11906-0.21167zm2.2887 5.8473 4.908-0.21167q0.14552-0.01323 0.23813-0.05292 0.0926-0.05292 0.0926-0.14552 0-0.11906-0.13229-0.26458-0.11906-0.14552-0.29104-0.25136-0.17198-0.10583-0.29104-0.10583-0.07937 0-0.11906 0.01323-0.15875 0.05292-0.33073 0.07937-0.17198 0.01323-0.35719 0.02646l-3.8894 0.17198q-0.05292-0.18521-0.14552-0.4101 0.58208-0.35719 1.1377-0.79375 0.56886-0.44979 1.2435-1.0848 0.05292-0.05292 0.17198-0.13229 0.11906-0.07937 0.11906-0.21167 0-0.18521-0.21167-0.33073-0.21167-0.15875-0.43656-0.15875h-0.17198l-4.6302 0.29104h-0.14552q-0.13229 0-0.26458-0.01323-0.11906-0.01323-0.23813-0.03969-0.02646-0.01323-0.07938-0.01323-0.10583 0-0.10583 0.0926t0.10583 0.29104q0.10583 0.19844 0.23812 0.33073 0.10583 0.10583 0.38365 0.10583 0.06615 0 0.15875 0 0.0926 0 0.18521-0.01323l3.8365-0.23812q-0.35719 0.37042-0.75406 0.67469-0.38365 0.30427-0.82021 0.56886l-0.05292-0.0926q-0.11906-0.23813-0.27781-0.23813 0 0-0.13229 0.03969-0.13229 0.02646-0.26458 0.10583-0.13229 0.07937-0.13229 0.19844 0 0.07937 0.07937 0.2249 0.10583 0.21167 0.19844 0.43656 0.0926 0.2249 0.17198 0.44979l-4.4979 0.19844h-0.15875q-0.11906 0-0.25136-0.01323t-0.26458-0.03969q-0.03969-0.01323-0.0926-0.01323-0.0926 0-0.0926 0.07938 0 0.0926 0.11906 0.3175 0.13229 0.21167 0.29104 0.35719 0.07937 0.06615 0.30427 0.06615 0.0926 0 0.18521 0 0.10583-0.01323 0.2249-0.01323l4.4053-0.19844q0.11906 0.68792 0.11906 1.3626 0 0.01323 0 0.19844 0 0.18521-0.01323 0.41011-0.01323 0.2249-0.03969 0.39688-0.02646 0.17198-0.07937 0.17198-0.05292 0-0.0926-0.01323-0.43656-0.0926-0.96573-0.27781-0.52917-0.18521-1.0319-0.43656-0.26458-0.13229-0.38365-0.13229-0.0926 0-0.0926 0.06615 0 0.13229 0.23813 0.37042 0.25136 0.2249 0.635 0.47625 0.38365 0.26458 0.78052 0.48948 0.4101 0.2249 0.74084 0.37042t0.46302 0.14552q0.34396 0 0.51594-0.52917 0.18521-0.52917 0.18521-1.4288 0-0.42334-0.03969-0.84667-0.02646-0.42334-0.10583-0.83344z"/>
  <path d="m74.274 52.787q0.19844 0 0.68792-0.25136 0.50271-0.23813 1.1906-0.71438 0.68792-0.47625 1.4684-1.1509 0.79375-0.68792 1.5743-1.561 0.79375-0.88636 1.4949-1.9447 0.71438-1.0716 1.2303-2.2887 0.07937-0.2249 0.07937-0.34396 0-0.17198-0.18521-0.3175-0.17198-0.14552-0.4101-0.23813-0.2249-0.0926-0.39688-0.0926-0.10583 0-0.13229 0.02646-0.06615 0.05292-0.06615 0.11906 0 0.07937 0.03969 0.18521 0.03969 0.0926 0.03969 0.23813 0 0.21167-0.27781 0.83344-0.26458 0.60854-0.79375 1.4817-0.52917 0.8599-1.2965 1.8389-0.76729 0.97896-1.7595 1.9315-0.99219 0.93927-2.1828 1.7066-0.25135 0.15875-0.35719 0.27781-0.0926 0.10583-0.0926 0.17198 0 0.0926 0.14552 0.0926z"/>
  <path d="m95.428 47.416h-0.03969q-2.0108 0.06615-4.0084 0.19844-1.9844 0.13229-3.8365 0.23813h-0.05292q-0.13229 0-0.27781-0.01323-0.13229-0.02646-0.2249-0.02646-0.19844 0-0.19844 0.21167 0 0.06615 0.06615 0.23812 0.06615 0.15875 0.2249 0.30427 0.15875 0.14552 0.43656 0.14552 0.06615 0 0.13229 0 0.06615 0 0.14552-0.01323 1.5346-0.13229 3.5983-0.25136 2.0638-0.13229 4.445-0.14552 0.2249 0 0.43656-0.11906 0.2249-0.11906 0.2249-0.29104 0-0.15875-0.21167-0.26458-0.19844-0.10583-0.44979-0.15875-0.25136-0.05292-0.4101-0.05292z"/>
  <path d="m103.07 43.817v8.3079q0 0.0926-0.0529 0.18521-0.0397 0.07938-0.0397 0.19844 0 0.05292 0.0132 0.0926 0.0264 0.10583 0.0926 0.27781 0.0661 0.18521 0.18521 0.3175 0.11906 0.14552 0.29104 0.14552 0.0529 0 0.0794-0.01323 0.18521-0.05292 0.23812-0.23813 0.0662-0.18521 0.0662-0.4101v-5.2388q0.62177 0.17198 1.2832 0.43656t1.27 0.5424q0.62178 0.27781 1.0716 0.50271 0.0662 0.02646 0.14552 0.06615 0.0926 0.03969 0.18521 0.03969 0.18521 0 0.29104-0.17198 0.10584-0.17198 0.10584-0.37042 0-0.09261-0.0397-0.17198-0.0265-0.0926-0.13229-0.15875-0.17198-0.13229-0.66146-0.33073-0.48948-0.21167-1.1245-0.43656-0.635-0.23813-1.2832-0.43656-0.635-0.19844-1.1112-0.3175v-3.003q0-0.2249-0.0529-0.35719-0.0529-0.14552-0.29104-0.23813-0.10583-0.03969-0.27781-0.06615-0.15875-0.03969-0.30428-0.03969-0.1852 0-0.21166 0.06615-0.0132 0.02646-0.0132 0.06615 0 0.0926 0.0661 0.18521 0.0794 0.0926 0.1323 0.19844 0.0794 0.15875 0.0794 0.37042z"/>
 </g>
</svg>
