<?xml version="1.0" encoding="UTF-8"?><svg width="9.525mm" height="7.0114mm" version="1.1" viewBox="0 0 9.525 7.0114" xmlns="http://www.w3.org/2000/svg"><g transform="translate(-56.022 -100.72)"><path d="m58.218 107.73c1.2435 0 1.905-0.84666 1.905-1.7727 0-0.9525-0.71438-1.561-1.561-1.561-0.18521 0-0.37042 0.0265-0.58208 0.0794 0-1.8785 1.0054-2.4606 2.0637-2.9898l-0.37042-0.76729c-1.2435 0.44979-3.6512 1.6669-3.6512 4.4715 0 1.9314 1.1377 2.54 2.196 2.54zm5.424 0c1.2435 0 1.905-0.84666 1.905-1.7727 0-0.9525-0.71437-1.561-1.561-1.561-0.18521 0-0.37042 0.0265-0.58208 0.0794 0-1.8785 1.0054-2.4606 2.0637-2.9898l-0.37042-0.76729c-1.2435 0.44979-3.6512 1.6669-3.6512 4.4715 0 1.9314 1.1377 2.54 2.196 2.54z" fill="#fff"/></g></svg>
